<?xml version="1.0" standalone="no"?>
<!DOCTYPE svg PUBLIC "-//W3C//DTD SVG 20010904//EN"
 "http://www.w3.org/TR/2001/REC-SVG-20010904/DTD/svg10.dtd">
<svg version="1.0" xmlns="http://www.w3.org/2000/svg"
 width="50.000000pt" height="50.000000pt" viewBox="0 0 50.000000 50.000000"
 preserveAspectRatio="xMidYMid meet">
<metadata>
Created by potrace 1.13, written by Peter Selinger 2001-2015
</metadata>
<g transform="translate(0.000000,50.000000) scale(0.100000,-0.100000)"
fill="#b366ff" stroke="none">
<path d="M240 465 c0 -4 7 -20 16 -36 19 -38 11 -50 -11 -16 -9 14 -24 28 -33
32 -14 5 -14 4 0 -12 29 -34 33 -46 10 -34 -12 6 -24 16 -27 21 -3 6 -11 10
-17 10 -6 0 -1 -11 12 -25 27 -29 25 -30 -26 -10 -36 14 -38 14 -16 -1 33 -24
27 -29 -25 -27 l-48 3 35 -14 35 -14 -30 -7 c-16 -4 -41 -11 -55 -15 -21 -7
-18 -9 20 -10 l45 -1 -30 -13 c-16 -8 -39 -21 -50 -30 -18 -15 -17 -15 17 -1
55 22 57 19 13 -21 l-40 -36 39 23 c39 23 41 16 8 -23 -20 -23 -4 -23 21 0 19
17 20 17 3 -15 -21 -42 -20 -50 4 -28 20 18 20 18 15 -31 l-6 -49 17 35 17 35
7 -47 c8 -62 20 -73 20 -17 l0 44 24 -50 c27 -56 31 -57 16 -5 l-10 35 36 -40
c34 -39 34 -39 19 -8 -22 47 -19 50 16 17 l32 -29 -18 28 c-19 30 -11 35 19
12 31 -24 42 -17 16 10 l-23 24 38 -10 c46 -13 56 -5 18 15 l-28 15 48 1 c53
0 64 17 15 22 l-33 3 40 14 c56 19 66 31 19 25 l-39 -6 38 26 c44 32 48 42 7
21 -45 -23 -47 -18 -9 22 l34 36 -32 -22 c-37 -25 -40 -22 -16 17 l17 27 -23
-20 -24 -20 6 27 c4 14 10 34 13 45 4 13 0 11 -15 -7 l-21 -25 -1 55 -1 55
-12 -40 -12 -40 -18 53 c-10 28 -19 52 -21 52 -2 0 -1 -19 2 -42 l5 -43 -27
43 c-24 39 -35 50 -35 37z"/>
</g>
</svg>
